HIERARCHY
ROOT root
{
	OFFSET 0.0000 0.0000 0.0000
	CHANNELS 6 Xposition Yposition Zposition Zrotation Xrotation Yrotation
	JOINT lowerback
	{
		OFFSET 0.0000 0.0000 10.0000
		CHANNELS 3 Zrotation Xrotation Yrotation
	}
}
MOTION
Frames: 130
Frame Time: 0.008333
-159.4884 94.9058 -200.7184 -4.8000 7.9700 33.6800 -2.7400 -16.6200 0.7700 
-158.7444 94.9996 -199.9552 -4.4600 7.9800 33.6100 -2.8100 -16.2300 0.5400 
-157.9913 95.1225 -199.2295 -4.0500 7.9000 33.6400 -2.6500 -15.6600 0.2400 
-157.2877 95.2503 -198.4807 -3.7200 7.8400 33.5500 -2.7700 -15.3900 0.1400 
-156.6339 95.3907 -197.7558 -3.3700 7.7100 33.3800 -3.0800 -15.1100 0.1400 
-155.9966 95.5086 -197.0331 -3.2200 7.7200 33.0800 -3.1900 -15.0800 0.1100 
-155.3327 95.6285 -196.3260 -3.0200 7.7300 32.8600 -3.3400 -15.1400 0.0600 
-154.6624 95.7290 -195.6331 -2.7800 7.8800 32.7300 -3.5900 -15.2000 -0.0300 
-153.9949 95.8507 -194.9412 -2.4200 7.9500 32.4200 -3.9000 -15.2200 -0.0600 
-153.3459 95.9508 -194.2450 -2.1600 7.8700 32.2800 -4.0000 -15.1300 -0.1100 
-152.6868 96.0620 -193.5716 -1.9500 8.0900 32.3000 -4.2100 -15.2400 -0.3000 
-152.0401 96.2271 -192.8998 -1.7000 8.3100 32.1800 -4.4700 -15.3300 -0.4000 
-151.4081 96.4314 -192.2534 -1.5400 8.2300 32.1300 -4.8400 -15.1000 -0.8800 
-150.7635 96.5972 -191.6250 -1.4800 8.1600 32.3600 -4.5500 -14.9600 -0.7500 
-150.1110 96.7674 -190.9862 -1.4500 8.1300 32.5700 -4.3700 -14.8600 -0.7500 
-149.4638 96.9592 -190.3402 -1.4900 7.9600 32.7500 -4.1000 -14.7400 -0.8500 
-148.8092 97.1545 -189.6811 -1.3600 7.8600 32.9700 -4.1800 -14.7300 -1.0900 
-148.1315 97.3135 -188.9999 -1.3400 7.7300 33.1600 -4.0300 -14.8100 -1.1800 
-147.4671 97.4875 -188.3181 -1.3500 7.6300 33.3000 -3.9400 -14.8100 -1.2300 
-146.8567 97.6483 -187.6504 -1.4000 7.6300 33.4200 -3.9300 -14.9000 -1.3400 
-146.2410 97.7819 -187.0055 -1.4600 7.7300 33.5900 -3.9600 -15.0700 -1.4000 
-145.5951 97.8845 -186.3921 -1.5100 7.7900 34.0000 -3.8500 -15.1200 -1.4600 
-145.0327 98.0229 -185.7698 -1.6800 7.7100 34.4400 -3.8100 -14.9900 -1.6100 
-144.5057 98.1481 -185.0931 -1.8900 7.5900 34.6000 -3.8800 -14.9400 -1.7400 
-143.8963 98.2297 -184.4335 -1.9800 7.4300 34.7700 -3.7800 -14.8900 -1.8300 
-143.2898 98.2833 -183.7967 -2.1100 7.5200 35.0700 -3.6800 -14.9500 -1.9300 
-142.7353 98.3264 -183.2252 -2.3000 7.7500 35.4500 -3.6800 -15.0300 -2.0100 
-142.2019 98.3244 -182.6773 -2.5300 8.0500 35.8800 -3.7600 -15.2000 -2.0900 
-141.6337 98.3069 -182.0540 -2.7800 8.0100 36.0600 -3.4900 -15.2900 -2.0900 
-141.0500 98.3013 -181.4017 -2.8800 7.7000 36.3100 -3.3300 -15.1400 -2.1800 
-140.4709 98.2843 -180.7505 -2.9000 7.5400 36.4900 -3.2700 -15.1300 -2.1800 
-139.8387 98.2497 -180.0804 -2.9800 7.2900 36.6200 -2.9900 -15.2600 -2.1300 
-139.2273 98.1944 -179.4520 -3.0500 7.2200 36.9500 -2.8400 -15.3100 -2.1800 
-138.7325 98.0956 -178.9085 -3.2200 7.7400 37.6400 -3.0500 -15.5000 -2.4100 
-138.4115 97.9150 -178.3225 -3.4900 8.2700 38.4000 -3.6200 -15.6000 -2.7000 
-138.0505 97.9081 -177.8150 -3.5800 8.0600 39.5000 -3.7800 -14.7900 -2.9800 
-137.5095 97.8593 -177.0550 -3.4300 7.6800 39.2000 -3.6700 -14.5100 -2.7700 
-136.9954 97.7346 -176.3974 -3.4800 7.5700 39.6800 -3.5800 -14.3600 -2.8500 
-136.5242 97.6338 -175.7807 -3.5900 7.6500 40.2100 -3.6800 -14.2800 -2.9600 
-136.0134 97.5550 -175.0715 -3.6000 7.9200 40.1100 -3.9100 -14.5800 -2.9300 
-135.4633 97.4522 -174.2953 -3.4200 7.8700 39.9300 -4.1400 -14.7000 -2.9400 
-134.9629 97.2988 -173.5991 -3.4800 7.8000 40.3600 -4.2400 -14.5700 -3.0400 
-134.4526 97.1205 -172.8854 -3.6700 8.1900 40.5600 -4.2600 -14.9600 -3.0300 
-133.9111 96.9937 -172.1213 -3.5100 8.5300 40.4200 -4.4600 -15.2700 -2.9200 
-133.3828 96.8809 -171.3880 -3.3800 8.7200 40.6000 -4.7300 -15.4100 -2.9700 
-132.8499 96.7463 -170.6265 -3.4000 8.5000 40.8400 -4.6900 -15.3200 -2.9900 
-132.3414 96.5352 -169.8701 -3.6700 8.6700 41.1300 -4.6400 -15.4900 -3.0400 
-131.8077 96.4270 -169.0433 -3.5100 8.5500 40.9000 -4.6200 -15.3900 -2.9100 
-131.2352 96.2975 -168.2638 -3.4200 8.6100 40.9500 -4.6400 -15.5000 -2.9100 
-130.6746 96.1413 -167.5008 -3.3700 8.8100 41.0900 -4.8000 -15.6600 -2.9000 
-130.1290 95.9609 -166.7533 -3.4700 9.0100 41.3300 -4.7800 -15.7700 -2.8900 
-129.6020 95.7933 -166.0088 -3.5200 9.0500 41.5600 -4.6600 -15.6900 -2.9200 
-129.1052 95.6513 -165.2438 -3.5700 9.0700 41.5500 -4.4800 -15.6000 -2.7900 
-128.6452 95.5535 -164.4708 -3.4000 8.9600 41.6200 -4.4900 -15.2700 -2.6500 
-128.1212 95.4324 -163.7208 -3.2800 8.9700 41.8700 -4.3400 -15.0500 -2.6300 
-127.5542 95.3450 -162.9255 -3.1100 9.1000 42.2600 -4.4400 -15.0700 -2.7500 
-126.9843 95.2769 -162.0919 -2.7800 9.1800 42.6100 -4.7900 -14.9600 -2.8800 
-126.3592 95.2000 -161.1983 -2.7100 9.0200 42.9500 -4.7400 -14.9300 -2.9000 
-125.7127 95.1586 -160.3085 -2.7300 8.7600 43.4100 -4.4200 -14.9600 -2.9300 
-125.0607 95.1761 -159.4277 -2.8800 8.6000 44.0200 -4.0700 -15.0200 -3.0000 
-124.3858 95.1949 -158.5143 -3.1200 8.5100 44.6300 -3.7700 -15.2500 -3.0400 
-123.6985 95.2091 -157.5590 -3.2900 8.3900 45.2800 -3.5800 -15.5400 -3.0700 
-123.0480 95.2315 -156.6291 -3.5300 8.3100 45.9800 -3.3300 -15.6800 -3.0900 
-122.4234 95.2983 -155.7144 -3.6700 8.2400 46.5500 -3.1300 -15.7200 -3.1000 
-121.8093 95.4171 -154.7805 -3.8100 8.1000 46.8200 -2.8000 -15.8100 -2.9800 
-121.2243 95.5505 -153.8813 -3.8800 7.8600 47.0600 -2.4900 -15.6200 -2.8900 
-120.6216 95.6521 -152.9814 -3.9800 7.6700 47.1000 -2.3300 -15.6800 -2.7600 
-120.0026 95.7593 -152.0822 -4.0200 7.5600 47.1300 -2.4300 -15.9300 -2.6300 
-119.3825 95.8886 -151.2418 -3.7900 7.3600 47.4200 -2.4700 -15.7300 -2.6300 
-118.9406 96.0976 -150.5174 -4.5200 6.9200 47.3800 -1.6200 -15.6200 -2.3200 
-118.3930 96.2922 -149.7104 -4.6100 6.5300 47.3300 -1.1800 -15.4000 -2.0900 
-117.8250 96.4626 -148.8592 -4.4000 6.2200 47.3900 -1.1300 -15.1000 -2.0700 
-117.3079 96.5817 -148.0114 -4.4600 6.1000 47.2800 -0.9000 -15.1500 -1.9700 
-116.8250 96.7019 -147.2362 -4.6100 5.9200 47.4700 -0.7100 -15.0900 -1.8900 
-116.2672 96.8139 -146.4216 -4.8600 5.7300 47.5600 -0.4800 -15.2500 -1.8200 
-115.7572 96.9226 -145.5956 -4.9000 5.5500 47.6200 -0.5300 -15.2500 -1.7600 
-115.2601 97.0354 -144.7937 -4.9300 5.4000 47.7800 -0.5000 -15.1800 -1.7000 
-114.7328 97.1647 -144.0180 -4.9500 5.2600 48.0200 -0.4700 -15.2300 -1.7200 
-114.2180 97.3010 -143.2349 -4.8200 5.1700 48.1000 -0.5000 -15.1300 -1.6800 
-113.7023 97.4265 -142.4422 -4.7000 5.1600 48.0800 -0.5100 -15.0100 -1.6000 
-113.1679 97.5860 -141.6456 -4.4000 5.1500 47.8200 -0.6700 -14.8500 -1.4500 
-112.6617 97.7549 -140.8377 -4.0700 5.2200 47.5900 -0.9700 -14.7900 -1.3000 
-112.1689 97.9269 -140.0449 -3.8800 5.1900 47.3700 -1.0900 -14.7700 -1.1100 
-111.6630 98.1012 -139.2756 -3.7400 5.0600 47.1500 -0.9900 -14.6100 -0.9100 
-111.1319 98.2152 -138.4978 -3.6200 5.0200 46.7700 -0.9600 -14.6500 -0.8200 
-110.5459 98.3071 -137.7206 -3.4600 5.1600 46.4000 -1.1600 -14.7900 -0.8400 
-109.9693 98.4082 -136.9426 -3.3400 5.3400 46.0200 -1.2600 -14.9200 -0.7600 
-109.5060 98.4857 -136.1780 -3.3500 5.3800 45.6900 -1.3100 -14.9700 -0.6200 
-109.0503 98.5408 -135.4724 -3.4200 5.3200 45.3900 -1.0600 -14.9100 -0.3300 
-108.5507 98.5942 -134.7843 -3.4100 5.5900 45.2000 -1.1500 -14.9300 -0.2600 
-108.0122 98.6343 -134.0640 -3.3200 5.8900 44.8400 -1.3500 -15.0800 -0.2500 
-107.4532 98.6612 -133.3376 -3.1000 6.1300 44.4600 -1.4600 -15.1200 -0.1400 
-106.9023 98.6686 -132.6548 -2.8900 6.4900 44.1200 -1.6400 -15.1300 -0.0600 
-106.3468 98.6848 -131.9218 -2.8000 6.4300 43.6600 -1.5700 -15.0800 0.0700 
-105.8550 98.6513 -131.1758 -2.8600 6.0700 43.2000 -1.3900 -14.9300 0.1100 
-105.3589 98.5573 -130.4529 -3.1200 6.0500 42.7000 -1.1500 -15.1100 0.2900 
-104.8090 98.5091 -129.7419 -3.1300 6.0200 42.4700 -1.0100 -15.1200 0.5100 
-104.2667 98.4715 -129.0135 -2.9700 5.8800 42.3600 -1.1200 -14.9100 0.5800 
-103.7278 98.4362 -128.2827 -2.8600 5.7200 42.1200 -1.2600 -14.7800 0.5800 
-103.1596 98.4062 -127.5578 -2.6800 5.5900 41.9500 -1.2300 -14.6700 0.6100 
-102.5738 98.3424 -126.8567 -2.5600 5.4500 41.8400 -1.2000 -14.5100 0.6300 
-101.9802 98.2579 -126.1895 -2.5500 5.4900 41.8000 -1.2400 -14.4600 0.6300 
-101.3889 98.1131 -125.5464 -2.8500 5.6900 41.4000 -1.0300 -14.8200 0.7000 
-100.8426 97.9335 -124.8075 -3.2600 5.9800 40.4300 -0.9300 -15.3400 1.0100 
-100.2833 97.8190 -124.1006 -3.4400 6.1800 39.8800 -0.9300 -15.4700 1.1700 
-99.6419 97.7674 -123.4260 -3.3400 6.0000 39.9500 -0.7800 -15.2100 1.1800 
-99.0095 97.6925 -122.7445 -3.3600 5.8400 40.0200 -0.6800 -15.1500 1.1300 
-98.3978 97.5469 -122.0257 -3.5400 5.7600 39.8500 -0.6100 -15.2500 1.1400 
-97.7849 97.3833 -121.2995 -3.8300 5.8400 39.5400 -0.6000 -15.4800 1.1900 
-97.1565 97.2276 -120.5791 -4.1400 5.8400 39.2800 -0.4700 -15.6800 1.2800 
-96.5241 97.0829 -119.8545 -4.3200 5.8800 39.0900 -0.4900 -15.8300 1.3000 
-95.8784 96.9218 -119.1095 -4.5100 6.0100 38.7900 -0.4300 -16.1200 1.3100 
-95.2416 96.7440 -118.3485 -4.7300 6.0400 38.4400 -0.3600 -16.2400 1.4100 
-94.5987 96.5772 -117.6437 -4.7700 6.0200 38.1900 -0.3600 -16.1100 1.4700 
-93.9864 96.3986 -116.9528 -4.9300 6.1100 38.0400 -0.4100 -16.1500 1.4300 
-93.3468 96.1997 -116.2695 -5.1400 6.2600 37.9100 -0.4900 -16.2800 1.3400 
-92.6894 96.0034 -115.6002 -5.2800 6.3200 37.8600 -0.4700 -16.2500 1.3600 
-92.0140 95.8558 -114.9650 -5.4400 6.3000 37.9100 -0.3200 -16.1400 1.3600 
-91.3376 95.7240 -114.3051 -5.4800 6.1200 37.8200 -0.3000 -15.8800 1.3300 
-90.6607 95.5990 -113.6104 -5.5500 5.9300 37.6700 -0.2300 -15.6400 1.3700 
-89.9566 95.4908 -112.8718 -5.6200 5.8200 37.4800 -0.2200 -15.6500 1.4000 
-89.2437 95.3831 -112.1131 -5.6300 5.9100 37.2000 -0.3700 -15.7900 1.4300 
-88.5236 95.2947 -111.3432 -5.6600 5.9800 36.8200 -0.4100 -15.9200 1.4900 
-87.7844 95.2543 -110.5880 -5.5300 6.0200 36.3800 -0.6300 -15.9200 1.5500 
-87.0125 95.2165 -109.7730 -5.4400 5.8900 35.9500 -0.7700 -15.9600 1.6100 
-86.2472 95.1913 -108.9388 -5.2500 5.8500 35.4300 -1.0000 -16.0300 1.6500 
-85.4644 95.1634 -108.1359 -5.0600 5.8200 35.0200 -1.2000 -16.0400 1.6300 
-84.6861 95.1332 -107.3325 -4.9800 5.8300 34.7400 -1.3400 -16.0100 1.6000 
-83.7352 95.2939 -106.6348 -4.2900 5.3400 35.6800 -1.5900 -15.3800 1.1900 
-82.8939 95.3740 -105.8763 -3.7800 5.2900 35.6700 -2.0600 -15.2300 1.0300 
